<?xml version="1.0" encoding="UTF-8" standalone="no"?>
<svg width="426px" height="439px" viewBox="0 0 426 439" version="1.1" xmlns="http://www.w3.org/2000/svg" xmlns:xlink="http://www.w3.org/1999/xlink">
    <!-- Generator: Sketch 48.2 (47327) - http://www.bohemiancoding.com/sketch -->
    <title>fill</title>
    <desc>Created with Sketch.</desc>
    <defs></defs>
    <g id="Resume" stroke="none" stroke-width="1" fill="none" fill-rule="evenodd" transform="translate(-299.000000, -1991.000000)">
        <g id="fill" transform="translate(300.000000, 1992.000000)" fill="#000000">
            <path d="M0,177.645892 C0.412462693,172.396692 0.927271188,168.57576 1.54442549,166.183094 C2.16157979,163.790429 3.45497596,160.601074 5.42461401,156.615031 L5.42461401,140.839194 L16.233479,126.819667 C13.9668141,120.075549 12.8334817,115.01746 12.8334817,111.645401 C12.8334817,108.273342 13.9668141,103.318997 16.233479,96.7823655 C20.1068754,91.5204057 23.1774128,87.9054401 25.4450913,85.9374684 C25.53856,85.856353 28.7214547,83.729221 32.1846309,81.7065186 C35.0244243,80.0479092 49.491533,81.8011269 52.1630136,78.7584008 C54.6419278,75.9350014 54.3375901,65.35469 55.4285411,59.0201073 C56.5194921,52.6855245 60.6561389,46.7261726 62.5882061,44.3630573 C64.4668333,42.0653045 74.0419305,43.1141189 78.3865169,41.7529083 C81.2829079,40.8454346 85.2598747,40.479554 90.3174174,40.6552666 C95.4437002,41.5573147 99.63851,41.5573147 102.901847,40.6552666 C104.020461,40.3460603 114.866637,27.6019403 127.368277,23.8737623 C130.094855,23.0606555 144.274441,11.2127055 154.538117,8.82171011 C156.902193,8.27098208 167.764389,9.32127023 176.729042,7.99565464 C179.703919,7.55575544 191.514141,2.63397738 204.953121,0.370168897 C207.298525,-0.0249165815 210.284908,2.19735977 213.82623,1.73191823 C214.475985,1.64651989 217.477804,1.10908337 222.831685,0.119608652 C224.90493,-0.263557106 229.728447,0.984827199 237.302235,3.86476156 C237.920065,3.75998597 233.353756,5.4875334 233.961543,5.3696647 C234.145548,5.33398032 233.766745,4.40722684 239.118918,5.69217101 C241.445873,6.25082401 246.544833,7.14878252 254.662494,8.6982812 C258.117048,9.35768609 262.01814,13.2785996 266.585089,14.198058 C268.284612,14.540221 274.123385,13.8823007 277.916179,15.7430301 C278.401417,15.9810862 280.035362,19.0906512 283.583665,21.3647103 C283.8581,21.5405923 286.198053,20.5025972 287.54547,21.3647103 C287.807113,21.5321164 293.568002,20.1854723 300.617953,24.8381804 C301.471198,25.4012904 301.375688,28.6245267 306.026132,28.6245267 C306.653856,28.6245267 312.579105,29.3684637 315.801381,31.3845147 C316.460975,31.7971969 321.045753,31.1845225 327.23728,35.8067064 C328.36931,36.651805 330.667393,39.9031462 334.778554,44.5248513 C338.355936,48.5464898 338.946846,56.1017692 345.696204,61.5161302 C349.57896,64.6308922 366.540345,65.24769 374.244029,70.2541511 C376.518907,71.7325467 378.109231,81.5651956 383.079872,85.9374684 C384.369903,87.0722052 384.824631,91.7029729 387.856476,93.6166147 C389.973279,94.9526996 395.127954,95.6489015 401.075304,97.8082251 C404.138476,98.9203808 404.613138,106.449923 406.598386,107.667321 C406.836637,107.813422 407.222123,109.597581 407.754843,113.019796 C407.908455,114.006609 410.576878,120.818915 414.519668,126.819667 C418.462457,132.820419 423.896429,138.355016 424.199208,140.839194 C424.365726,142.205408 424.462647,150.040798 424.489972,164.345366 C424.495821,167.407189 423.094815,171.489467 423.087664,176.590936 C423.085659,178.021157 416.355477,189.891374 416.486207,200.158361 C416.517427,202.610184 416.867359,206.81795 417.536004,212.781657 C417.932156,216.314978 415.390117,229.31904 416.486207,237.378649 C417.216935,242.751722 417.216935,252.427969 416.486207,266.407389 L413.066048,287.238171 C409.925108,301.095417 408.137107,308.652305 407.702045,309.908836 C407.39781,310.787519 404.211214,320.082393 397.862694,332.507035 C393.630347,340.790129 389.618384,344.351072 385.826805,343.189861 C384.436955,349.864137 382.969089,352.987046 381.423207,352.558587 C372.932687,350.205343 364.346034,335.136755 362.185382,331.562412 C360.710564,329.122637 363.705203,317.377176 362.185382,314.179491 C359.453186,308.430983 356.614809,301.922875 354.976568,298.610557 C353.250153,295.119961 355.523139,290.795462 354.164407,287.99289 C350.196299,279.808122 348.56177,276.839574 345.696204,271.454659 C336.820283,254.775205 329.566792,242.002884 323.93573,233.137695 C315.459234,225.929433 309.191533,220.746443 305.132627,217.588726 C299.044267,212.852151 296.859117,208.149067 290.842417,205.530593 C285.866298,203.364981 280.884816,207.777772 277.353731,205.530593 C273.822646,203.283413 273.78663,200.837835 270.977706,200.158361 C265.675055,198.87566 257.631094,198.412314 246.845824,198.768324 C233.820693,205.413106 225.51399,209.109974 221.925715,209.858929 C216.543301,210.982361 208.009137,210.342083 204.953121,211.279014 C196.630369,213.830652 195.408862,216.559762 191.85164,217.588726 C179.669262,221.112612 171.75027,221.936458 167.410383,224.290083 C153.962567,231.583156 156.405692,243.224404 154.538117,244.454624 C141.012198,253.364501 173.046098,263.648071 169.237448,264.070738 C151.207526,266.071616 144.991849,266.69743 141.401831,266.407389 C133.101452,265.736792 128.4236,266.387945 127.368277,268.360848 C120.642048,274.852339 113.846037,279.871217 106.980242,283.417482 C103.108966,285.417042 99.0533834,285.271166 95.4421515,286.177126 C93.0346635,286.781099 90.423868,287.687588 87.6097651,288.896591 C90.7000915,281.361176 90.2319471,284.106283 86.2053319,297.131911 C82.1787167,310.15754 79.3261364,318.893655 77.6475909,323.340258 L74.0266386,331.562412 L54.6167446,332.507035 C53.8665186,328.599484 53.2072909,325.831959 52.6390614,324.204459 C51.7867172,321.763209 47.3166828,317.323226 46.9076757,315.636881 C45.90063,311.484813 47.3664472,309.715707 46.9076757,308.395552 C45.3597149,303.941161 44.0035232,307.731934 43.7012323,306.854715 C42.7643983,304.136112 42.247719,302.606565 42.1511945,302.266074 C40.1668599,295.266323 42.6474076,296.898659 42.1511945,295.184555 C40.2212702,288.517881 38.6873603,283.403604 37.5494648,279.841725 C33.4430095,266.98756 30.8127556,264.68472 29.5167497,260.466317 C24.5658644,244.351551 26.7650286,246.227223 25.4450913,242.262941 C19.2777021,223.739888 20.690885,232.547903 19.8734116,230.16819 C18.6083419,226.485499 17.395031,223.004185 16.233479,219.724247 C13.4946642,211.990508 10.9082016,208.014431 8.47409132,207.796018 C4.69691807,204.775472 2.38702946,201.766241 1.54442549,198.768324 C0.701821515,195.770408 0.187013019,188.729597 0,177.645892 Z" id="Path-2" stroke="#000000"></path>
            <path d="M54.4934811,332.643635 C56.9757672,343.275562 59.3057201,352.303532 61.4833399,359.727546 C63.6609597,367.15156 65.8663487,374.416517 68.0995068,381.522416 C70.0248703,387.585017 72.4636909,393.796098 75.4159685,400.15566 C78.3682461,406.515222 81.7842926,412.656292 85.664108,418.578869 C89.2043138,422.753195 93.0866266,426.120499 97.3110463,428.680782 C101.535466,431.241065 106.395849,433.017342 111.892195,434.009613 C118.803397,435.75216 125.242777,436.773819 131.210332,437.07459 C137.177887,437.375361 143.147036,437.132341 149.117779,436.345532 C156.128473,435.85359 162.229445,434.880928 167.420694,433.427546 C172.611943,431.974164 177.312091,429.756345 181.521139,426.774088 C185.295386,422.9937 188.319202,419.393494 190.592588,415.973471 C192.865975,412.553448 194.632065,408.947843 195.89086,405.156657 L206.234929,377.258647 L210.563289,360.538439 L221.02214,356.469276 L221.706855,341.208181 L190.592588,337.617451 L161.217668,330.293496 C152.172766,329.605186 142.170321,328.988473 131.210332,328.443356 C120.250343,327.89824 109.286435,327.472152 98.3186067,327.16509 L73.4666889,330.103837 L78.7040201,344.565428 C82.6879324,342.024042 87.4560523,339.935944 93.0083799,338.301135 C98.5607074,336.666325 104.195367,335.598542 109.912357,335.097785 C124.558413,334.964867 135.995671,335.113975 144.224129,335.545108 C152.452588,335.97624 158.117101,336.667021 161.217668,337.617451 C168.863471,339.359655 174.735684,340.908439 178.834308,342.263803 C182.932932,343.619166 186.074718,344.773714 188.259665,345.727445 L195.89086,352.05268 L199.918138,360.538439 C200.394007,365.493849 199.925832,371.067252 198.513615,377.258647 C197.101398,383.450042 194.998251,389.412935 192.204175,395.147328 L181.521139,417.657772 C176.997641,421.443659 172.797317,424.346156 168.920168,426.365264 C165.043019,428.384372 161.017603,429.765604 156.843919,430.50896 C150.749373,431.290572 144.78397,431.746221 138.947712,431.875907 C133.111454,432.005593 127.347124,431.810588 121.654725,431.290891 C114.602744,429.876771 108.485513,427.676409 103.303031,424.689805 C98.1205489,421.703201 93.6684865,417.812602 89.9468435,413.018008 C86.5921278,406.97526 83.6438752,401.018366 81.1020857,395.147328 C78.5602963,389.276289 76.3480325,383.313396 74.4652944,377.258647 C73.6915103,373.829239 73.12179,370.161635 72.7561334,366.255836 C72.3904769,362.350037 72.2463699,358.392818 72.3238125,354.38418 C73.4164164,352.104863 74.4471351,350.219717 75.4159685,348.728741 C76.3848019,347.237766 77.4808191,345.849995 78.7040201,344.565428 L73.4666889,330.103837 L54.4934811,332.643635 Z" id="Path-30"></path>
            <path d="M221,332.981775 C223.482286,343.613702 225.812239,352.641672 227.989859,360.065686 C230.167479,367.4897 232.372868,374.754657 234.606026,381.860556 C236.268725,388.095904 238.576214,394.393358 241.528491,400.752921 C244.480769,407.112483 248.10322,413.057597 252.395844,418.588264 C255.509744,422.940371 259.178904,426.396566 263.403324,428.956849 C267.627744,431.517132 272.626207,433.3141 278.398714,434.347753 C285.306847,435.917575 291.744692,436.852872 297.712247,437.153643 C303.679802,437.454413 309.650486,437.297756 315.624298,436.683672 C322.443317,436.103491 328.448451,435.08671 333.6397,433.633328 C338.830949,432.179946 343.626935,430.006246 348.027658,427.112228 C350.873724,425.228339 353.89754,422.387018 357.099107,418.588264 C360.300674,414.789509 362.90811,411.015919 364.921414,407.267493 C368.256055,399.436781 371.010278,391.59971 373.184082,383.75628 C375.357887,375.91285 377.062855,368.54253 378.298987,361.64532 L388.096082,356.486836 L388.096082,341.213086 C377.644441,340.132217 367.312116,338.696759 357.099107,336.906714 C352.362139,336.07646 348.003474,335.06268 343.447801,333.939139 C339.936828,333.073246 334.695623,331.970745 327.724187,330.631636 C299.00016,327.97721 279.024474,327.433188 267.79713,328.999569 C256.569786,330.565951 247.944905,332.86051 241.922487,335.883248 L245.210539,344.903568 C249.194451,342.362182 253.962571,340.274084 259.514899,338.639275 C265.067226,337.004465 270.701885,335.936682 276.418876,335.435925 C291.064932,335.303007 302.50219,335.452115 310.730648,335.883248 C318.959107,336.31438 324.62362,336.832411 327.724187,337.437341 C335.196667,339.179862 340.982219,340.728805 345.080843,342.084168 C349.179467,343.439532 352.407914,344.766671 354.766184,346.065585 C358.453342,348.44892 360.997074,350.516534 362.397378,352.268426 C363.797683,354.020317 365.200143,356.889702 366.604759,360.876579 C367.616311,366.7587 367.415978,372.795459 366.003761,378.986853 C363.885435,388.273946 365.062062,387.112017 359.862703,398.394892 C356.396463,405.916808 352.451449,412.450482 348.027658,417.995912 C343.50416,421.781799 339.303836,424.684296 335.426687,426.703404 C331.549538,428.722512 327.524122,430.103744 323.350438,430.8471 C317.029817,431.106941 310.951377,431.301705 305.115119,431.431391 C299.27886,431.561077 293.236047,431.077227 286.986678,429.979839 C280.507465,428.858323 274.65438,426.874671 269.427423,424.028884 C264.200466,421.183097 259.875779,417.625519 256.453362,413.356148 C253.098647,407.3134 250.150394,401.356506 247.608605,395.485468 C245.066815,389.614429 242.854551,383.651536 240.971813,377.596787 C240.198029,374.167379 239.628309,370.499775 239.262652,366.593976 C238.896996,362.688177 239.133848,358.775388 239.973208,354.855609 C240.303894,352.487433 240.953654,350.557857 241.922487,349.066881 C242.891321,347.575906 243.987338,346.188135 245.210539,344.903568 L239.973208,330.441977 L221,332.981775 Z" id="Path-30" transform="translate(304.548041, 382.714794) scale(-1, 1) translate(-304.548041, -382.714794) "></path>
        </g>
    </g>
</svg>