<?xml version="1.0" encoding="UTF-8" standalone="no"?>
<svg width="89px" height="69px" viewBox="0 0 89 69" version="1.1" xmlns="http://www.w3.org/2000/svg" xmlns:xlink="http://www.w3.org/1999/xlink">
    <!-- Generator: Sketch 48.2 (47327) - http://www.bohemiancoding.com/sketch -->
    <title>quotation-marks</title>
    <desc>Created with Sketch.</desc>
    <defs></defs>
    <g id="Mayur-Joshi---Freelance-Web-Developer-based-in-Mumbai" stroke="none" stroke-width="1" fill="none" fill-rule="evenodd" transform="translate(-122.000000, -2229.000000)">
        <g id="testimonials" transform="translate(0.000000, 2165.000000)" fill="#D8D8D8" fill-rule="nonzero">
            <g id="quotation-marks" transform="translate(122.000000, 64.000000)">
                <path d="M18.4247091,27.35885 C24.8687603,17.9683269 30.3254166,13.2214691 34.794678,13.1182765 C35.2623914,13.1182765 35.7301048,12.9634877 36.0419137,12.65391 C36.3537226,12.4991211 36.6655315,12.3443323 36.821436,11.8799658 C39.160003,7.54587818 37.9127673,4.14052365 34.0151556,1.35432449 C29.4939261,-1.8962412 22.3223207,1.35432449 18.736518,4.29531249 C9.69405905,11.7251769 0.495695592,24.5723979 0.963408988,36.8009694 C-0.595635666,45.005031 -0.283826735,53.8277421 2.05474025,61.1028177 C3.6137849,65.7464829 8.13501439,68.0683156 12.8121484,68.3778933 C17.4892823,68.6877239 27.1553592,70.0805705 31.3647797,67.2946243 C35.5742003,64.5081722 35.8860092,59.0905627 36.3537226,54.4471504 C36.821436,49.3391186 38.2245762,39.7419574 33.8592512,35.7174475 C30.9490345,33.1376335 25.8041871,30.3514343 18.4247091,27.35885 Z" id="Shape"></path>
                <path d="M69.4245946,27.35885 C70.5159181,20.5481409 79.0903475,13.2730654 85.7944462,13.1182765 C86.2621562,13.1182765 86.7298663,12.9634877 87.041673,12.65391 C87.3537344,12.4991211 87.6652864,12.3443323 87.8214445,11.8799658 C90.1599947,7.54587818 88.9127679,4.14052365 85.0151842,1.35432449 C80.4939871,-1.8962412 73.3224331,1.35432449 69.7364013,4.29531249 C60.6940071,11.7251769 51.4957096,24.5726509 51.9634196,36.8009694 C50.4043861,45.005031 50.7161928,53.8277421 53.0544883,61.1028177 C54.6135218,65.7464829 59.1347189,68.0683156 63.8120741,68.3778933 C68.4891745,68.6877239 78.1551821,70.0805705 82.3645725,67.2946243 C86.5737082,64.5081722 86.8857696,59.0905627 87.3534797,54.4471504 C87.8211897,49.3391186 89.2243198,39.7419574 84.8590261,35.7174475 C80.4937323,31.8477264 67.8655611,36.0270252 69.4245946,27.35885 Z" id="Shape"></path>
            </g>
        </g>
    </g>
</svg>